<?xml version="1.0" standalone="no"?><!DOCTYPE svg PUBLIC "-//W3C//DTD SVG 1.1//EN" "http://www.w3.org/Graphics/SVG/1.1/DTD/svg11.dtd"><svg t="1654132077749" class="icon" viewBox="0 0 1024 1024" version="1.1" xmlns="http://www.w3.org/2000/svg" p-id="2160" width="32" height="32" xmlns:xlink="http://www.w3.org/1999/xlink"><defs><style type="text/css"></style></defs><path d="M796.452571 758.857143H227.547429V265.142857h568.905142v493.714286z m0-576H227.547429c-21.577143 0-42.203429 8.667429-57.453715 24.100571C154.843429 222.390857 146.285714 243.309714 146.285714 265.142857v493.714286c0 21.833143 8.557714 42.752 23.771429 58.185143 15.286857 15.433143 35.949714 24.100571 57.490286 24.100571h568.905142c21.577143 0 42.203429-8.667429 57.453715-24.100571 15.250286-15.433143 23.808-36.352 23.808-58.185143V265.142857c0-21.833143-8.557714-42.752-23.771429-58.185143A80.749714 80.749714 0 0 0 796.416 182.857143z m-204.8 299.922286l-111.762285 145.664-79.652572-97.097143L288.548571 676.571429H735.451429l-143.835429-193.792z" p-id="2161"></path></svg>